<?xml version="1.0" encoding="UTF-8"?><svg id="Layer_1" xmlns="http://www.w3.org/2000/svg" viewBox="0 0 96.4 187.96"><defs><style>.cls-1{fill:#fff;}</style></defs><g><path class="cls-1" d="M15.9,70.59c1.72-2.22,3.2-4.43,4.43-6.73-4.43,.82-9.03,1.15-13.05,1.15v-8.87c.74,0,1.56,0,2.46-.08V11c15.84,0,25.45-4.43,25.45-4.43V15.43s-5.58,2.87-16.58,4.02V55.24c1.89-.25,3.78-.66,5.42-1.15,.82-3.12,1.4-6.65,1.72-10.84h-4.1l-1.97-11.08h5.66l.82,4.52c.17-2.79,.17-5.91,.17-9.36h8.87c0,13.87-1.15,24.63-3.53,32.75v.08l-.08,.08c-1.81,5.83-4.27,10.34-7.47,13.63l-8.21-3.28Zm21.75,3.28V12.64h24.63V57.79c0,7.8-1.4,11.9-11,11.9v-8.87c3.04,0,3.78-.9,3.78-3.04v-14.53h-5.42l-1.97-11.08h5.66l1.72,9.52V21.5h-8.54v52.37h-8.87Z"/><path class="cls-1" d="M48.9,98.85c0,5.09-.74,9.93-3.2,14.37h16.58v32.84H19.76v4.1c0,4.27,1.56,5.5,4.6,5.5H62.28v8.87H24.35c-9.03,0-13.46-4.19-13.46-14.37v-30.29l-1.81,.74-1.81-10.18c4.68-2.71,6.65-6.65,6.65-11.58H48.9Zm-14.12,14.37c1.56-1.64,2.79-3.45,3.61-5.5H21.32c-.66,1.97-1.56,3.86-2.71,5.5h16.17Zm-2.63,23.97v-15.1h-12.4v15.1h12.4Zm21.26-15.1h-12.4v15.1h12.4v-15.1Z"/></g><g><path class="cls-1" d="M82.94,14.46h-3.28l-.87,12.56h-2.95l.85-12.56h-2.02v-2.95h2.24l.08-1.48h2.98l-.11,1.48h3.09v2.95Zm7.24,12.32l.79,2.84s-.66,.79-4.67,.79-5.65-.96-5.65-5.22h2.95c0,2.05,.57,2.27,3.14,2.27s3.44-.68,3.44-.68Zm-7.95-6.5v-2.95h7.16v2.95h-7.16Z"/><path class="cls-1" d="M84.22,36.53v1.48h4.64v2.95h-4.64v2.87h4.64v2.95h-4.64v2.79h2.76v2.95h-2.76c0,1.61-.3,4.4-3.66,4.4-2.7,0-3.69-1.8-3.69-3.44,0-1.72,1.17-3.91,4.4-3.91v-2.79h-4.64v-2.95h4.64v-2.87h-4.64v-2.95h4.64v-1.48h2.95Zm-2.79,15.84c-1.2,0-1.72,.3-1.72,.93,0,.35,.22,.76,.85,.76,.79,0,.87-.66,.87-1.69Z"/><path class="cls-1" d="M88.43,79.68l.79,2.84s-1.99,.79-7.4,.79c-4.07,0-5.63-.96-5.63-5.22h2.95c0,2.05,.55,2.27,3.11,2.27,4.64,0,6.17-.68,6.17-.68Zm-3.66-9.2c0-2.08-.55-2.29-3.11-2.29h-3.91v-2.95h4.34c1.5,0,2.68,.14,3.55,.52v-2.84h1.69v3.52h-.71c.76,.77,1.09,2.05,1.09,4.04h-2.95Zm3.36-7.57h1.69v3.52h-1.69v-3.52Z"/><path class="cls-1" d="M78.13,128.16c0,2.57,.22,3.14,2.29,3.14v2.95c-4.29,0-5.24-1.58-5.24-5.65v-10.49h2.95v10.05Zm6.96-8.28c4.26,0,5.22,1.56,5.22,5.65v8.71h-2.95v-8.3c0-2.57-.22-3.11-2.27-3.11v-2.95Z"/><path class="cls-1" d="M83.43,150.86c2.73,.79,4.67,3,4.67,5.82,0,3.06-1.78,6.12-5.9,6.2-1.2,.03-2.57-.19-4.18-.71l.49-2.95c5.24,1.78,6.64-.35,6.64-2.54s-1.72-3.58-5.46-3.39l2.18-7.87h-4.21v-2.95h8.11l-2.35,8.39Z"/></g></svg>